<?xml version="1.0"?>
<svg xmlns="http://www.w3.org/2000/svg" xmlns:xlink="http://www.w3.org/1999/xlink" version="1.1" id="Layer_1" x="0px" y="0px" viewBox="0 0 512 512" style="enable-background:new 0 0 512 512;" xml:space="preserve" width="512px" height="512px" class=""><g><g>
	<g>
		<g>
			<path d="M256,0C114.844,0,0,114.844,0,256s114.844,256,256,256s256-114.844,256-256S397.156,0,256,0z M256,490.667     C126.604,490.667,21.333,385.396,21.333,256S126.604,21.333,256,21.333S490.667,126.604,490.667,256S385.396,490.667,256,490.667     z" data-original="#000000" class="active-path" data-old_color="#000000" fill="#ECF0F1"/>
			<path d="M344.458,291.125l-77.792,77.792V117.333c0-5.896-4.771-10.667-10.667-10.667s-10.667,4.771-10.667,10.667v251.583     l-77.792-77.792c-4.167-4.167-10.917-4.167-15.083,0c-4.167,4.167-4.167,10.917,0,15.083l96,96     c2.083,2.083,4.813,3.125,7.542,3.125s5.458-1.042,7.542-3.125l96-96c4.167-4.167,4.167-10.917,0-15.083     S348.625,286.958,344.458,291.125z" data-original="#000000" class="active-path" data-old_color="#000000" fill="#ECF0F1"/>
		</g>
	</g>
</g></g> </svg>
