<?xml version="1.0" encoding="utf-8"?>
<!-- Generator: Adobe Illustrator 16.0.0, SVG Export Plug-In . SVG Version: 6.00 Build 0)  -->
<!DOCTYPE svg PUBLIC "-//W3C//DTD SVG 1.1//EN" "http://www.w3.org/Graphics/SVG/1.1/DTD/svg11.dtd">
<svg version="1.1" id="Layer_1" xmlns="http://www.w3.org/2000/svg" xmlns:xlink="http://www.w3.org/1999/xlink" x="0px" y="0px"
	 width="64px" height="64px" viewBox="0 0 64 64" enable-background="new 0 0 64 64" xml:space="preserve">
<path opacity="0.2" enable-background="new    " d="M32.766,57.957h-1.483c-0.069-0.024-0.138-0.031-0.207-0.031
	c-0.792-0.037-1.578-0.102-2.357-0.208c-1.457-0.188-2.891-0.509-4.285-0.954c-2.394-0.766-4.625-1.865-6.692-3.297
	c-1.917-1.333-3.613-2.903-5.089-4.713c-1.741-2.123-3.098-4.466-4.06-7.041c-0.861-2.287-1.376-4.654-1.534-7.099
	c0-0.131-0.025-0.263-0.069-0.396v-2.582c0.043-0.114,0.063-0.232,0.069-0.352c0.031-0.584,0.094-1.169,0.17-1.746
	c0.377-2.789,1.206-5.435,2.481-7.941c0.88-1.728,1.948-3.335,3.205-4.819c1.244-1.469,2.639-2.783,4.184-3.932
	c2.52-1.873,5.291-3.223,8.319-4.052c1.47-0.401,2.972-0.665,4.492-0.791c0.27-0.025,0.553,0,0.823-0.069h2.538
	c0.195,0.057,0.396,0.025,0.591,0.044c1.006,0.087,2.005,0.214,2.997,0.409c3.123,0.615,6.02,1.784,8.696,3.511
	c2.081,1.338,3.915,2.952,5.517,4.831c1.289,1.508,2.381,3.147,3.274,4.918c1.056,2.092,1.81,4.284,2.237,6.589
	c0.227,1.218,0.395,2.45,0.402,3.693c0,0.083,0.018,0.17,0.024,0.251v1.482c-0.024,0.094-0.024,0.195-0.032,0.295
	c0,0.238,0,0.479-0.019,0.717c-0.113,1.521-0.352,3.021-0.729,4.504c-0.723,2.783-1.885,5.365-3.5,7.746
	c-1.199,1.771-2.601,3.366-4.209,4.779c-1.603,1.407-3.356,2.596-5.26,3.555c-2.193,1.105-4.5,1.873-6.92,2.293
	c-0.93,0.164-1.865,0.27-2.807,0.326c-0.249,0.029-0.513,0.022-0.771,0.078H32.766z"/>
<path fill="#4F4F4F" d="M32.766,57.064h-1.483c-0.069-0.025-0.138-0.032-0.207-0.032c-0.792-0.038-1.578-0.101-2.357-0.208
	c-1.457-0.188-2.891-0.508-4.285-0.953c-2.394-0.767-4.625-1.865-6.692-3.298c-1.917-1.333-3.613-2.903-5.089-4.712
	c-1.741-2.123-3.098-4.467-4.06-7.041c-0.861-2.287-1.376-4.654-1.534-7.1c0-0.131-0.025-0.263-0.069-0.395v-2.582
	c0.043-0.114,0.063-0.232,0.069-0.352c0.031-0.584,0.094-1.169,0.17-1.747c0.377-2.789,1.206-5.434,2.481-7.941
	c0.88-1.728,1.948-3.335,3.205-4.818c1.244-1.469,2.639-2.783,4.184-3.932c2.52-1.873,5.291-3.223,8.319-4.052
	c1.47-0.401,2.972-0.666,4.492-0.792c0.27-0.025,0.553,0,0.823-0.069h2.538c0.195,0.056,0.396,0.025,0.591,0.043
	c1.006,0.088,2.005,0.214,2.997,0.409c3.123,0.616,6.02,1.785,8.696,3.511c2.081,1.337,3.915,2.952,5.517,4.83
	c1.289,1.508,2.381,3.147,3.274,4.918c1.056,2.092,1.81,4.285,2.237,6.589c0.227,1.219,0.395,2.45,0.402,3.694
	c0,0.083,0.018,0.17,0.024,0.251v1.482c-0.024,0.094-0.024,0.194-0.032,0.295c0,0.238,0,0.478-0.019,0.716
	c-0.113,1.521-0.352,3.021-0.729,4.505c-0.723,2.782-1.885,5.364-3.5,7.744c-1.199,1.772-2.601,3.367-4.209,4.781
	c-1.603,1.406-3.356,2.595-5.26,3.555c-2.193,1.105-4.5,1.872-6.92,2.292c-0.93,0.163-1.865,0.271-2.807,0.327
	c-0.249,0.029-0.513,0.021-0.771,0.078H32.766z"/>
<path opacity="0.2" enable-background="new    " d="M41.731,45.45c-0.39,0.013-0.825-0.036-1.261-0.13
	c-1.291-0.282-2.387-0.868-3.23-1.91c-0.512-0.634-0.943-1.322-1.314-2.044c-0.437-0.854-0.801-1.74-1.119-2.64
	c-0.389-1.087-0.719-2.198-0.973-3.32c-0.142-0.629,0.018-1.023,0.713-1.24c0.884-0.275,1.774-0.523,2.682-0.723
	c1.502-0.329,3.017-0.541,4.563-0.488c0.436,0.017,0.872,0.064,1.303,0.14c1.25,0.218,2.311,0.794,3.176,1.704
	c1.48,1.553,2.068,3.404,1.704,5.514C47.448,43.328,44.772,45.474,41.731,45.45z"/>
<path opacity="0.2" enable-background="new    " d="M22.269,45.45c0.389,0.013,0.825-0.036,1.262-0.13
	c1.291-0.282,2.387-0.868,3.229-1.91c0.513-0.634,0.943-1.322,1.314-2.044c0.437-0.854,0.801-1.74,1.12-2.64
	c0.389-1.087,0.719-2.198,0.973-3.32c0.142-0.629-0.018-1.023-0.713-1.24c-0.884-0.275-1.774-0.523-2.682-0.723
	c-1.502-0.329-3.017-0.541-4.562-0.488c-0.437,0.017-0.872,0.064-1.303,0.14c-1.25,0.218-2.31,0.794-3.176,1.704
	c-1.48,1.553-2.068,3.404-1.704,5.514C16.551,43.328,19.228,45.474,22.269,45.45z"/>
<path fill="#E9FF61" d="M22.269,44.557c0.389,0.012,0.825-0.037,1.262-0.129c1.291-0.283,2.387-0.869,3.229-1.91
	c0.513-0.635,0.943-1.322,1.314-2.045c0.437-0.854,0.801-1.74,1.12-2.64c0.389-1.087,0.719-2.198,0.973-3.319
	c0.142-0.631-0.018-1.024-0.713-1.24c-0.884-0.276-1.774-0.523-2.682-0.724c-1.502-0.33-3.017-0.541-4.562-0.489
	c-0.437,0.018-0.872,0.065-1.303,0.141c-1.25,0.218-2.31,0.794-3.176,1.704c-1.48,1.552-2.068,3.404-1.704,5.514
	C16.551,42.436,19.228,44.58,22.269,44.557z"/>
<path opacity="0.2" enable-background="new    " d="M25.75,22.569c-0.017,0.46,0.064,0.962,0.2,1.465
	c0.257,0.956,0.685,1.832,1.189,2.66c1.148,1.882,2.596,3.493,4.167,4.988c0.129,0.123,0.282,0.227,0.446,0.306
	c0.165,0.085,0.328,0.085,0.498,0.012c0.164-0.073,0.312-0.177,0.433-0.313c0.547-0.563,1.085-1.128,1.601-1.71
	c0.728-0.828,1.418-1.679,2.046-2.592c0.568-0.827,1.078-1.697,1.453-2.641c0.374-0.938,0.557-1.906,0.434-2.923
	c-0.205-1.679-0.891-3.101-2.115-4.216c-1.449-1.317-3.137-1.844-5.035-1.55C27.977,16.533,25.738,19.376,25.75,22.569L25.75,22.569
	z"/>
<path fill="#10B7D6" d="M25.75,21.676c-0.017,0.459,0.064,0.962,0.2,1.464c0.257,0.956,0.685,1.833,1.189,2.66
	c1.148,1.882,2.596,3.493,4.167,4.989c0.129,0.123,0.282,0.227,0.446,0.306c0.165,0.085,0.328,0.085,0.498,0.012
	c0.164-0.073,0.312-0.177,0.433-0.313c0.547-0.563,1.085-1.128,1.601-1.71c0.728-0.827,1.418-1.679,2.046-2.592
	c0.568-0.828,1.078-1.698,1.453-2.641c0.374-0.938,0.557-1.906,0.434-2.923c-0.205-1.679-0.891-3.101-2.115-4.216
	c-1.449-1.316-3.137-1.843-5.035-1.55C27.977,15.64,25.738,18.483,25.75,21.676L25.75,21.676z"/>
<path fill="#FF5E5E" d="M41.731,44.557c-0.39,0.012-0.825-0.037-1.261-0.129c-1.291-0.283-2.387-0.869-3.23-1.91
	c-0.512-0.635-0.943-1.322-1.314-2.045c-0.437-0.854-0.801-1.74-1.119-2.64c-0.389-1.087-0.719-2.198-0.973-3.319
	c-0.142-0.631,0.018-1.024,0.713-1.24c0.884-0.276,1.774-0.523,2.682-0.724c1.502-0.33,3.017-0.541,4.563-0.489
	c0.436,0.018,0.872,0.065,1.303,0.141c1.25,0.218,2.311,0.794,3.176,1.704c1.48,1.552,2.068,3.404,1.704,5.514
	C47.448,42.436,44.772,44.58,41.731,44.557z"/>
<path opacity="0.1" fill="#FFFFFF" enable-background="new    " d="M30.733,7.043c-0.27,0.069-0.553,0.043-0.823,0.068
	c-1.52,0.126-3.022,0.391-4.492,0.792c-3.028,0.829-5.799,2.178-8.318,4.051c-1.545,1.149-2.941,2.462-4.185,3.932
	c-1.256,1.483-2.324,3.091-3.203,4.819c-1.276,2.506-2.105,5.152-2.482,7.941c-0.077,0.578-0.14,1.162-0.171,1.747
	c-0.006,0.119-0.024,0.239-0.068,0.353v0.893c0.043-0.114,0.062-0.233,0.068-0.353c0.032-0.584,0.095-1.169,0.171-1.746
	c0.377-2.789,1.207-5.435,2.482-7.941c0.879-1.728,1.947-3.335,3.203-4.818c1.244-1.47,2.64-2.783,4.185-3.933
	c2.52-1.872,5.29-3.222,8.318-4.051c1.47-0.402,2.972-0.666,4.492-0.792c0.27-0.025,0.553,0.001,0.823-0.068h2.538
	c0.195,0.057,0.397,0.025,0.592,0.044c1.006,0.087,2.003,0.213,2.996,0.408c3.122,0.616,6.02,1.785,8.696,3.512
	c2.079,1.338,3.915,2.951,5.517,4.829c1.288,1.508,2.382,3.149,3.274,4.92c1.056,2.092,1.808,4.284,2.236,6.589
	c0.226,1.219,0.397,2.45,0.403,3.693c0,0.083,0.018,0.17,0.024,0.251v-0.894c-0.007-0.081-0.024-0.168-0.024-0.251
	c-0.006-1.244-0.178-2.475-0.403-3.693c-0.429-2.305-1.181-4.497-2.236-6.589c-0.893-1.771-1.986-3.412-3.274-4.919
	c-1.602-1.878-3.438-3.491-5.517-4.829c-2.677-1.727-5.574-2.896-8.696-3.512c-0.993-0.195-1.99-0.321-2.996-0.409
	c-0.194-0.019-0.396,0.013-0.592-0.043H30.733z"/>
<path opacity="0.1" fill="#FFFFFF" enable-background="new    " d="M22.209,32.061c-0.437,0.017-0.872,0.065-1.303,0.141
	c-1.25,0.218-2.309,0.794-3.175,1.705c-1.308,1.371-1.917,2.979-1.79,4.789c0.099-1.45,0.701-2.755,1.79-3.896
	c0.866-0.91,1.925-1.486,3.175-1.704c0.431-0.077,0.867-0.124,1.303-0.142c1.545-0.052,3.06,0.159,4.562,0.488
	c0.908,0.201,1.798,0.449,2.682,0.725c0.36,0.111,0.572,0.275,0.677,0.49c0.011-0.048,0.026-0.096,0.037-0.143
	c0.142-0.629-0.018-1.024-0.713-1.24c-0.884-0.276-1.774-0.523-2.682-0.725C25.269,32.22,23.754,32.008,22.209,32.061z"/>
<path opacity="0.1" fill="#FFFFFF" enable-background="new    " d="M31.767,15.089c-0.231,0.012-0.464,0.035-0.702,0.072
	c-3.088,0.479-5.328,3.323-5.315,6.516c-0.004,0.115,0.015,0.239,0.022,0.359c0.223-2.971,2.378-5.53,5.293-5.982
	c1.898-0.293,3.587,0.234,5.035,1.551c1.225,1.115,1.91,2.538,2.115,4.216c0.006,0.059,0.003,0.115,0.008,0.173
	c0.028-0.351,0.035-0.704-0.008-1.066c-0.205-1.679-0.891-3.102-2.115-4.217C34.832,15.56,33.381,15.011,31.767,15.089z"/>
<path opacity="0.1" fill="#FFFFFF" enable-background="new    " d="M41.791,32.061c-1.545-0.052-3.061,0.159-4.563,0.488
	c-0.907,0.201-1.798,0.448-2.682,0.725c-0.695,0.216-0.854,0.611-0.713,1.24c0.01,0.047,0.025,0.095,0.036,0.143
	c0.104-0.215,0.317-0.379,0.677-0.49c0.884-0.275,1.774-0.523,2.682-0.725c1.502-0.329,3.018-0.54,4.563-0.488
	c0.436,0.018,0.872,0.064,1.303,0.142c1.25,0.218,2.309,0.794,3.176,1.704c1.088,1.142,1.689,2.446,1.789,3.896
	c0.128-1.811-0.482-3.418-1.789-4.789c-0.867-0.91-1.926-1.487-3.176-1.705C42.663,32.125,42.227,32.078,41.791,32.061z"/>
</svg>
