<?xml version="1.0" encoding="utf-8"?>
<!-- Generator: Adobe Illustrator 16.0.0, SVG Export Plug-In . SVG Version: 6.00 Build 0)  -->
<!DOCTYPE svg PUBLIC "-//W3C//DTD SVG 1.1//EN" "http://www.w3.org/Graphics/SVG/1.1/DTD/svg11.dtd">
<svg version="1.1" id="Layer_1" xmlns="http://www.w3.org/2000/svg" xmlns:xlink="http://www.w3.org/1999/xlink" x="0px" y="0px"
	 width="100px" height="100px" viewBox="0 0 100 100" enable-background="new 0 0 100 100" xml:space="preserve">
<path fill="#BAD75D" d="M11.059,40.995c-0.106,2.864,0.401,5.993,1.247,9.127c1.604,5.949,4.268,11.412,7.408,16.566
	c7.154,11.724,16.174,21.763,25.957,31.084c0.804,0.766,1.757,1.41,2.778,1.902c1.025,0.531,2.044,0.531,3.096,0.074
	c1.021-0.456,1.947-1.103,2.702-1.945c3.405-3.513,6.759-7.028,9.972-10.654c4.53-5.159,8.834-10.465,12.744-16.147
	c3.542-5.159,6.719-10.58,9.055-16.457c2.33-5.848,3.468-11.874,2.701-18.213c-1.278-10.458-5.546-19.32-13.178-26.268
	c-9.03-8.201-19.543-11.483-31.366-9.655C24.934,3.39,10.986,21.104,11.059,40.995L11.059,40.995z"/>
</svg>
